<svg width="202" height="42" viewBox="0 0 202 42" fill="none" xmlns="http://www.w3.org/2000/svg">
<path d="M19.1922 40.584H10.8635L0 10.5083H8.87184L15.1183 32.6121H15.2089L21.6364 10.5083H30.0556L19.1922 40.584Z" fill="black"/>
<path d="M56.3996 34.6956C56.3996 38.2286 57.2143 39.0439 58.1196 39.4062V40.5839H49.5194C49.0667 39.1345 48.9762 38.6815 48.7952 37.0509C46.9846 38.9533 44.4498 41.3992 39.018 41.3992C34.4916 41.3992 29.8746 38.8627 29.8746 32.612C29.8746 26.7237 33.5863 23.7342 38.6559 23.0095L45.8077 21.9224C47.0751 21.7413 48.6141 21.1977 48.6141 19.5671C48.6141 16.2153 45.4456 16.0341 43.3634 16.0341C39.3801 16.0341 38.7464 18.48 38.4748 20.2012H30.7799C31.6852 10.9611 38.1127 9.69287 44.2687 9.69287C48.5236 9.69287 56.3091 10.9611 56.3091 18.3895V34.6956H56.3996ZM48.6141 25.9084C47.7993 26.5425 46.5319 26.9955 43.2729 27.539C40.2854 28.0825 37.8411 28.8072 37.8411 32.0685C37.8411 34.8768 40.0138 35.6921 41.5528 35.6921C45.0835 35.6921 48.6141 33.4273 48.6141 29.8037V25.9084Z" fill="black"/>
<path d="M69.0737 40.5841H61.1071V0H69.0737V40.5841Z" fill="black"/>
<path d="M84.192 10.5083H89.0806V16.1248H84.192V32.431C84.192 34.1522 84.2825 34.8769 87.451 34.8769C87.9942 34.8769 88.5374 34.7863 89.0806 34.7863V40.7652C87.8132 40.8558 86.5458 40.8558 85.3689 40.8558H84.3731C77.4929 40.8558 76.2254 38.2287 76.2254 34.3334V16.1248H72.1516V10.5083H76.2254V2.35522H84.192V10.5083Z" fill="black"/>
<path d="M120.041 31.7061C117.959 38.9533 111.894 41.3086 106.734 41.3086C98.224 41.3086 91.7059 37.2321 91.7059 24.9119C91.7059 21.2883 92.9733 9.69287 106.191 9.69287C112.165 9.69287 120.404 12.5011 120.404 26.2707V27.7202H99.6724C99.8535 29.9849 100.397 35.0579 106.734 35.0579C108.906 35.0579 111.17 33.8803 111.803 31.7967H120.041V31.7061ZM112.256 22.5566C111.803 17.6647 108.725 16.2153 106.1 16.2153C102.388 16.2153 100.397 18.5706 99.944 22.5566H112.256Z" fill="black"/>
<path d="M150.188 29.6228C149.916 32.7028 147.472 41.3994 136.427 41.3994C125.111 41.3994 122.486 32.7934 122.486 26.4521C122.486 16.7591 126.741 9.78369 136.97 9.78369C141.768 9.78369 149.554 11.9578 150.278 21.2885H142.221C141.859 19.3862 140.773 16.3967 137.333 16.3967H136.97C131.991 16.3967 130.633 21.3791 130.633 25.0933C130.633 28.3545 130.724 34.877 136.789 34.877C140.863 34.877 142.221 31.0722 142.221 29.6228H150.188Z" fill="black"/>
<path d="M181.058 40.5841H173.091V22.285C173.091 20.1109 173.001 16.3967 167.931 16.3967C164.401 16.3967 161.685 18.752 161.685 23.3721V40.5841H153.718V0H161.685V14.4037H161.775C162.771 11.9578 166.211 9.69308 170.466 9.69308C176.351 9.69308 180.968 13.1355 180.968 19.7485V40.5841H181.058Z" fill="black"/>
<path d="M201.88 34.877H186.037V40.4935H201.88V34.877Z" fill="black"/>
</svg>
