<svg xmlns="http://www.w3.org/2000/svg" viewBox="0 0 185 55"><defs><style>.cls-1{fill:#b2b2b2;fill-rule:evenodd;}.cls-2{fill:none;}</style></defs><title>01</title><g id="Layer_2" data-name="Layer 2"><g id="Layer_13" data-name="Layer 13"><path class="cls-1" d="M20.35,8l1.8,3.14a2.16,2.16,0,0,1,0,2.09L11.42,31.81,16.5,40.6a4.47,4.47,0,0,0,3.85,2.23A4.46,4.46,0,0,0,24.2,40.6l5.08-8.79L28,29.43l-5.76,10a2.09,2.09,0,0,1-1.8,1.05,2,2,0,0,1-1.8-1.05l-4.43-7.6,10-17.3,1.8,3.13a2.16,2.16,0,0,1,0,2.09L19,31.81l1.37,2.38,7.56-13.12,5,8.61a4.32,4.32,0,0,1,0,4.29l-5,8.76a8.65,8.65,0,0,1-15,0L7.82,34a4.39,4.39,0,0,1,0-4.29Zm23.44,9.33h3.49V37.93H43.79ZM52,21.07a2.08,2.08,0,0,0,1.9-1.27A2.07,2.07,0,0,0,54,18.62a2,2,0,0,0-.56-1.06,2.07,2.07,0,0,0-1-.56,2,2,0,0,0-1.18.12,2.07,2.07,0,0,0-.93.75A2.11,2.11,0,0,0,49.91,19,2.05,2.05,0,0,0,52,21.07ZM50.2,23.59h3.52V37.93H50.2ZM63,23.23a7,7,0,0,0-7.24,7.28c0,4.47,2.81,7.21,7.27,7.21,1.77,0,3.64.9,3.64,2.88S65.06,43.7,63,43.7s-3.74-1.23-3.74-3.1H55.74c0,3.86,3.1,6.41,7.27,6.41s7.17-2.45,7.17-6.41a4.84,4.84,0,0,0-3-4.76,5.72,5.72,0,0,0,3-5.37A7,7,0,0,0,63,23.23Zm17.49,0A5.33,5.33,0,0,0,76,25.36V17.25H72.48V37.9H76V30.62a3.64,3.64,0,0,1,3.53-3.89c1.87,0,3.24,1.11,3.24,3.71V37.9H86.3V30.19C86.34,26,84.54,23.23,80.47,23.23ZM94.91,35.48a1.21,1.21,0,0,1-1-.43,2.23,2.23,0,0,1-.32-1.37V26.62h2.84l.32-3.07H93.61V19.63L90.05,20v3.57h-2.7v3.06h2.7v7.14a4.87,4.87,0,0,0,1,3.35,4,4,0,0,0,3.06,1.15A6.21,6.21,0,0,0,96,38a5.34,5.34,0,0,0,1.62-.76L96.35,35A2.5,2.5,0,0,1,94.91,35.48Zm14.51-5.26a10,10,0,0,0-4.79-1.12c-1-.07-2.45-.28-2.45-1.55,0-.9.94-1.4,2.63-1.4a4.91,4.91,0,0,1,3.56,1.26l2-2.31a7.77,7.77,0,0,0-5.61-1.87c-2.63,0-6.09,1.15-6.09,4.47a3.91,3.91,0,0,0,1.91,3.35,11.05,11.05,0,0,0,4.54,1.12c1,.11,2.66.36,2.37,1.76-.18,1-1.37,1.26-2.19,1.3a9.89,9.89,0,0,1-2.7-.25,8.43,8.43,0,0,1-2.52-1.23L98.26,36a1.91,1.91,0,0,1,.21.18,9.94,9.94,0,0,0,8.43,1.88c2.19-.51,4.06-2.09,4.06-4.47A3.56,3.56,0,0,0,109.42,30.22Zm11.62-7a5.7,5.7,0,0,0-4.64,2.27l-.11-1.95h-3.42V44.2l3.53-.39V36.24c1,1.55,3.2,2,4.72,2,4.57,0,7.23-3.42,7.23-7.56A7.14,7.14,0,0,0,121,23.23ZM133,32a4.28,4.28,0,0,0,4.46,3.17,6.26,6.26,0,0,0,3.86-1.47L143.54,36a8.88,8.88,0,0,1-6.15,2.31c-4.47,0-7.71-3-7.71-7.53a7.37,7.37,0,0,1,7.46-7.5c4.32,0,7.92,3,7.56,8.79Zm16.34,0a4.29,4.29,0,0,0,4.47,3.17,6.26,6.26,0,0,0,3.85-1.47L159.89,36a8.9,8.9,0,0,1-6.16,2.31c-4.46,0-7.7-3-7.7-7.53a7.37,7.37,0,0,1,7.45-7.5c4.32,0,7.92,3,7.56,8.79Zm20.27,6.27A5.72,5.72,0,0,0,174.22,36l.1,1.91h3.42V17.28h-3.52v8c-1-1.55-3.24-2-4.76-2-4.57,0-7.2,3.38-7.2,7.56a7.14,7.14,0,0,0,7.31,7.46ZM63,34.8c-2,0-3.74-1.77-3.74-4.29S61,26.19,63,26.19s3.71,1.87,3.71,4.32S65,34.8,63,34.8Zm57.75.43a4.26,4.26,0,0,1-4-4.43c0-2.24,1.52-4.61,4-4.61s4,2.41,4,4.61A4.24,4.24,0,0,1,120.76,35.23Zm20.52-5.91a4.3,4.3,0,0,0-4.14-3.17A4.36,4.36,0,0,0,133,29.32Zm16.38,0a4.3,4.3,0,0,0-4.14-3.17,4.36,4.36,0,0,0-4.18,3.17Zm12.16-3a4.26,4.26,0,0,1,4,4.44c0,2.23-1.52,4.61-4,4.61s-4-2.42-4-4.61A4.26,4.26,0,0,1,169.82,26.29Z"/><rect class="cls-2" width="185" height="55"/></g></g></svg>