<svg xmlns="http://www.w3.org/2000/svg" viewBox="0 0 185 55"><defs><style>.cls-1{fill:#b2b2b2;fill-rule:evenodd;}.cls-2{fill:none;}</style></defs><title>10</title><g id="Layer_2" data-name="Layer 2"><g id="Layer_5" data-name="Layer 5"><path class="cls-1" d="M81.19,22.43,78.54,31a7.43,7.43,0,0,0,2.65.49A8,8,0,0,0,83.8,31l-2.61-8.6ZM50.2,6V49H93L134.8,6Zm51.59,26.48h-2.7v8.19H86.77l-1.22-3.94a13.16,13.16,0,0,1-4.36.68,14,14,0,0,1-4.45-.72l-1.26,3.94H67.92l.81-2.27a2.14,2.14,0,0,1-.31.27,11.36,11.36,0,0,1-7.15,2.5h-.45a18.84,18.84,0,0,1-9.45-2.59l2.57-5.25a11.38,11.38,0,0,0,6.88,2,3.9,3.9,0,0,0,2.7-.86,1.84,1.84,0,0,0,.53-1.31c0-1.36-1.84-2-4.18-2.76a18.67,18.67,0,0,1-5.66-2.67,6.77,6.77,0,0,1-2.88-6,7.43,7.43,0,0,1,2-5,11.27,11.27,0,0,1,8.32-3.12A22.09,22.09,0,0,1,71.07,16l-2.92,5.2a13.4,13.4,0,0,0-6.08-1.67c-2.51-.14-3.77.77-3.77,1.77,0,1.17,2.34,2.3,4.58,3,3.42,1.08,7.74,2.58,8.37,6.88l6.21-17h7.19l7.29,20.32V14.06h8.32c8,0,11.69,2.89,11.69,9.28.18,5.7-3.69,9.14-10.16,9.14Zm-.86-12.81H99.09v6.88h1.84c2.43,0,4.41-.81,4.41-3.49C105.34,20.53,103.36,19.67,100.93,19.67Z"/><rect class="cls-2" width="185" height="55"/></g></g></svg>