<svg xmlns="http://www.w3.org/2000/svg" viewBox="0 0 185 55"><defs><style>.cls-1{fill:#b2b2b2;fill-rule:evenodd;}.cls-2{fill:none;}</style></defs><title>11</title><g id="Layer_2" data-name="Layer 2"><g id="Layer_4" data-name="Layer 4"><path class="cls-1" d="M153.54,20.74a.79.79,0,0,0-.42-.21c-.83,0-1.65,0-2.47,0l-2.58,0,.15.25c.23.37.39.63.57.89,1.43,2,2.84,4.11,4.33,6.11a1.23,1.23,0,0,1,.21,1.45,2,2,0,0,1-.25.39l-1.3,1.79c-.84,1.18-1.65,2.36-2.49,3.53l-1.4,2,2.23,0c.57,0,1.15,0,1.72,0a2,2,0,0,0,1-.17,2,2,0,0,0,.79-.84c.26-.46.54-.9.82-1.35.55-.89,1.15-1.77,1.76-2.74,1,1.57,1.92,2.92,2.84,4.25.21.31.52.76.81.77.82,0,1.65,0,2.48,0H165c-1.87-2.66-3.55-5.1-5.29-7.49a1.3,1.3,0,0,1-.32-.85,1.26,1.26,0,0,1,.31-.7q1.31-1.8,2.59-3.63l.78-1.12,1.09-1.55.34-.52c.1-.16.21-.34.35-.54-1.55,0-2.86,0-4.16,0a1.62,1.62,0,0,0-.73.12,1.7,1.7,0,0,0-.68.7c-.36.61-.74,1.22-1.12,1.82l-1.47,2.31-.52-.8c-.63-1-1.2-1.93-1.8-2.83-.13-.21-.27-.42-.41-.62A2.67,2.67,0,0,0,153.54,20.74ZM95.38,32.13a2,2,0,0,0-1,.73l0,.06a4.11,4.11,0,0,1-4.47.64,3.4,3.4,0,0,1-.91-.64,3.75,3.75,0,0,1-.91-1.5,3.83,3.83,0,0,1-.14-1.75h12c.2-3.26-.32-6.14-3.12-8.08a9,9,0,0,0-14.1,6.3,9.54,9.54,0,0,0,1,5.67A7.12,7.12,0,0,0,88.24,37a11.72,11.72,0,0,0,6.22,0,8.42,8.42,0,0,0,2.82-1.32,6.61,6.61,0,0,0,2.4-3.59H97.35l-1.09,0A3.25,3.25,0,0,0,95.38,32.13ZM54.63,13.93A19.91,19.91,0,0,1,40.11,47.5,20.16,20.16,0,0,1,20,27.33,20.05,20.05,0,0,1,40,7.5a20.11,20.11,0,0,1,14.61,6.43ZM71,20.59V36.84h4.78c0-.57,0-1,0-1.51,0-2.29,0-4.59.08-6.88C76,25.32,78,24,81,24.81c.11,0,.23,0,.41.07.2-.94.4-1.86.58-2.78.29-1.5.17-1.68-1.34-1.89a6.26,6.26,0,0,0-1.06,0c-1.78.08-2.95,1.12-4,2.81l-.13-2.4Zm70.14,16.24h4.77V20.59h-4.77Zm-8.17-.68c.22.32.61.74.94.75,1.64.08,3.3,0,5.21,0l-6.71-9.85,6.14-6.56a19.39,19.39,0,0,1-2.68,0A4.6,4.6,0,0,0,131,22.63a50.26,50.26,0,0,1-3.57,4l-.27-.13V12.35h-4.85V36.87h4.82c.25-2.22-.73-4.79,2.12-6.13C130.44,32.51,131.66,34.34,132.92,36.15Zm-17.8.7v-2a15.52,15.52,0,0,1-2.33,1.83,7.25,7.25,0,0,1-9.77-3.4,10.49,10.49,0,0,1,.09-9,7.2,7.2,0,0,1,8.54-3.91A15.44,15.44,0,0,1,115,22.32v-10l4.24,0v24.5l-4.09,0Zm25.78-20.3h5v-4.2h-5v4.2ZM51.21,34.29a20.4,20.4,0,0,0,3,.35c-.26.5-.44.93-.68,1.3a15.91,15.91,0,0,1-29-5.17C22.53,22,28.55,13.39,37.68,11.82,47,10.21,56,17.75,56,27.15c0,2-1.12,3.2-2.87,3.22s-2.89-1.2-3-3.14a10,10,0,0,0-8.41-9.65C36,16.43,30.2,21.14,30,26.89A10.25,10.25,0,0,0,36.6,37a10,10,0,0,0,11.48-3.41c.12-.15.23-.32.33-.45A23.19,23.19,0,0,0,51.21,34.29ZM40,33.38a5.89,5.89,0,1,1,6-5.79,5.93,5.93,0,0,1-6,5.79Zm66.87-1.65a3.2,3.2,0,0,0,3,2A3.42,3.42,0,0,0,113,32.08a6.82,6.82,0,0,0-.08-6.77,3.37,3.37,0,0,0-5.76.07A17,17,0,0,0,106,28.72,23.16,23.16,0,0,0,106.82,31.73ZM88,26.8a3.29,3.29,0,0,1,3.64-3.3,2.91,2.91,0,0,1,3,3.3Z"/><rect class="cls-2" width="185" height="55"/></g></g></svg>