<svg xmlns="http://www.w3.org/2000/svg" viewBox="0 0 185 55"><defs><style>.cls-1{fill:none;}.cls-2,.cls-3{fill:#b2b2b2;fill-rule:evenodd;}.cls-3{opacity:0.6;isolation:isolate;}</style></defs><title>12</title><g id="Layer_2" data-name="Layer 2"><g id="Layer_2-2" data-name="Layer 2"><rect class="cls-1" width="185" height="55"/><path class="cls-2" d="M53.78,22.2H46.05V53.57h8.37s0-16.37-.22-17.54c0,0,4.51,7,12.23,17.54h7V22.22h-8.3s.14,15,.22,16.5C65.4,38.72,63.17,34.51,53.78,22.2Z"/><path class="cls-3" d="M94.22,9.74a8.1,8.1,0,1,0,8.07,8.1A8.08,8.08,0,0,0,94.22,9.74Zm16.46,8.13A16.37,16.37,0,1,1,94.31,1.43,16.41,16.41,0,0,1,110.68,17.87Z"/><path class="cls-2" d="M138.59,5.37l-4.23,6.88a14.62,14.62,0,0,0-8.63-3c-3.57,0-3.24,1.64-3.24,1.88s-.31,1.57,5.86,2.9S139,17.6,139,24.21s-4.94,9.93-13,9.93a22.31,22.31,0,0,1-13-3.89l4.11-6.76a18.22,18.22,0,0,0,9.4,3.11c4.1.06,3.87-1.79,3.87-1.79,0-1.56-1.91-2.46-7.56-3.65s-9-4.13-9-9c0-5.17,3.11-10.49,12.34-10.51C134.08,1.67,138.59,5.37,138.59,5.37Z"/><rect class="cls-1" width="185" height="55"/></g></g></svg>