<svg xmlns="http://www.w3.org/2000/svg" viewBox="0 0 185 55"><defs><style>.cls-1{fill:#838997;fill-rule:evenodd;}.cls-2{fill:none;}</style></defs><title>02</title><g id="Layer_2" data-name="Layer 2"><g id="Layer_3" data-name="Layer 3"><path class="cls-1" d="M66,54.42V49.58l57.39-21.15v4.83ZM87.76,38.24s-.62-.52-.61-2.36v-5.3c0-.81-.3-1.17-.82-1.17a2.82,2.82,0,0,0-.91.17l-2.23.8v9.51l-5.11,1.89V14.37l8.56-3.12a6.4,6.4,0,0,1,2.8-.58c1.63,0,2.29,1,2.29,3.37V20.4a6,6,0,0,1-3.19,4.79v.07a4.28,4.28,0,0,1,.81-.07,2.76,2.76,0,0,1,3,2.51c0,.07,0,.13,0,.2v6.29A3,3,0,0,0,93,36.35ZM86.49,17.68c0-.87-.16-1.17-.67-1.17a2.88,2.88,0,0,0-1,.14l-1.63.58v8.48l1.56-.58a2.2,2.2,0,0,0,1.69-2.41ZM112,30V2.47L117.13.58V23.46l6.29-2.32v4.61ZM71.33,21.58V44.25l-5.18,1.89V23.47l-4.57,1.67V20.39l14.24-5.23v4.76Zm32.48,11.17-4.39,1.67c-.89-1-5.5-25.67-5.5-25.67l5.16-1.89s2,16.61,2.55,17.49c.51-1.24,2.62-19.2,2.62-19.2l5.17-1.89S104.61,31.28,103.81,32.75Z"/><rect class="cls-2" width="185" height="55"/></g></g></svg>