<svg xmlns="http://www.w3.org/2000/svg" viewBox="0 0 185 55"><defs><style>.cls-1{fill:#b2b2b2;fill-rule:evenodd;}.cls-2{fill:none;}</style></defs><title>03</title><g id="Layer_2" data-name="Layer 2"><g id="Layer_12" data-name="Layer 12"><path class="cls-1" d="M79.28,13a10.1,10.1,0,0,0-1.83-.84,6.8,6.8,0,0,0-2.15-.33,4.6,4.6,0,0,0-1.08.11,3.19,3.19,0,0,0-.84.33,1.74,1.74,0,0,0-.56.52,1.32,1.32,0,0,0-.2.7,1,1,0,0,0,.22.64,1.67,1.67,0,0,0,.6.44,4.41,4.41,0,0,0,.91.3c.36.08.74.16,1.16.22l.79.13a10.51,10.51,0,0,1,1.76.43,5.12,5.12,0,0,1,1.42.76,3.24,3.24,0,0,1,1.29,2.69,4.07,4.07,0,0,1-.47,2A4.18,4.18,0,0,1,79,22.46a5.73,5.73,0,0,1-1.83.83,8.34,8.34,0,0,1-2.17.28,11,11,0,0,1-1.61-.12,9.35,9.35,0,0,1-1.57-.34,9.56,9.56,0,0,1-1.46-.56,7.42,7.42,0,0,1-1.26-.79l1.45-2.23a7.27,7.27,0,0,0,.87.57,7.66,7.66,0,0,0,2.28.81A7,7,0,0,0,75,21a5.37,5.37,0,0,0,1.09-.11,3,3,0,0,0,.88-.33,1.92,1.92,0,0,0,.58-.52,1.25,1.25,0,0,0,.21-.72,1.05,1.05,0,0,0-.19-.61A1.54,1.54,0,0,0,77,18.3a5.11,5.11,0,0,0-.93-.32c-.43-.1-.85-.18-1.29-.25l-.89-.14a9.31,9.31,0,0,1-1.71-.43,4.48,4.48,0,0,1-1.35-.75A3.37,3.37,0,0,1,70,15.25a3.87,3.87,0,0,1-.32-1.62,3.83,3.83,0,0,1,.46-1.91,4,4,0,0,1,1.22-1.37,5.62,5.62,0,0,1,1.77-.83,7.74,7.74,0,0,1,2.13-.28,11,11,0,0,1,1.42.08,9.26,9.26,0,0,1,2.63.72,12.5,12.5,0,0,1,1.31.67L79.28,13Zm9.25.52a4.5,4.5,0,0,1,3.35,1.44,4.91,4.91,0,0,1,1,1.6,5.84,5.84,0,0,1,0,4,5.1,5.1,0,0,1-1,1.6,4.79,4.79,0,0,1-1.49,1.05,4.6,4.6,0,0,1-1.86.39,3.93,3.93,0,0,1-1.68-.34,3.59,3.59,0,0,1-1.17-.91v5h-2.6V13.74h2.55v1a3.67,3.67,0,0,1,1.18-.95A3.72,3.72,0,0,1,88.53,13.48Zm6.83,9.84H98V13.74H95.36Zm9.45-9.84a3.58,3.58,0,0,1,1.67.35,3.66,3.66,0,0,1,1.18.91V9.08h2.6V23.32h-2.55V22.26a3.64,3.64,0,0,1-1.2.95,3.71,3.71,0,0,1-1.7.36,4.61,4.61,0,0,1-1.87-.39,4.57,4.57,0,0,1-2.47-2.65,5.72,5.72,0,0,1-.36-2,5.47,5.47,0,0,1,.36-2,4.72,4.72,0,0,1,1-1.6,4.66,4.66,0,0,1,1.49-1.06A4.6,4.6,0,0,1,104.81,13.48Zm12.49,0a4.89,4.89,0,0,1,1.91.36,4.42,4.42,0,0,1,1.49,1,4.82,4.82,0,0,1,1,1.59,5.92,5.92,0,0,1,.34,2.05,6.26,6.26,0,0,1-.05.87h-6.87a2.81,2.81,0,0,0,.33.9,2.35,2.35,0,0,0,.55.62,2.42,2.42,0,0,0,.74.36,3.45,3.45,0,0,0,.87.11,3.66,3.66,0,0,0,1.28-.24,3.62,3.62,0,0,0,1.17-.68l1.53,1.66a5.27,5.27,0,0,1-1.86,1.11,7,7,0,0,1-2.27.35,5.61,5.61,0,0,1-2-.36,4.86,4.86,0,0,1-1.59-1,4.6,4.6,0,0,1-1-1.58,5.44,5.44,0,0,1-.37-2.06,5.68,5.68,0,0,1,.36-2.06,4.49,4.49,0,0,1,2.55-2.64,5.21,5.21,0,0,1,2-.37Zm12.1,0a5.7,5.7,0,0,1,.76,0,3.27,3.27,0,0,1,.6.16l-.38,2.56a3.55,3.55,0,0,0-.75-.22,4,4,0,0,0-.84-.09,2.39,2.39,0,0,0-.82.14,1.93,1.93,0,0,0-.65.41,1.74,1.74,0,0,0-.42.67,3,3,0,0,0-.15.94v5.22h-2.61V13.74h2.53v1a2.76,2.76,0,0,1,1.15-1A3.71,3.71,0,0,1,129.4,13.48ZM79.28,33a8.9,8.9,0,0,0-1.83-.84,6.54,6.54,0,0,0-2.15-.34,5.2,5.2,0,0,0-1.08.11,3.19,3.19,0,0,0-.84.33,1.85,1.85,0,0,0-.56.52,1.32,1.32,0,0,0-.2.7,1,1,0,0,0,.22.64,1.56,1.56,0,0,0,.6.44,4.41,4.41,0,0,0,.91.3c.36.08.74.16,1.16.22l.79.13a10.54,10.54,0,0,1,1.76.44,5.09,5.09,0,0,1,1.42.75,3.27,3.27,0,0,1,1.29,2.69,4,4,0,0,1-.47,2A4.18,4.18,0,0,1,79,42.47a5.52,5.52,0,0,1-1.83.83,8.34,8.34,0,0,1-2.17.28,12.56,12.56,0,0,1-1.61-.11,11.85,11.85,0,0,1-1.57-.34,9.6,9.6,0,0,1-1.46-.57,6.84,6.84,0,0,1-1.26-.79l1.45-2.23a7.27,7.27,0,0,0,.87.57,7.66,7.66,0,0,0,2.28.81A7,7,0,0,0,75,41a5.37,5.37,0,0,0,1.09-.11A2.78,2.78,0,0,0,77,40.6a1.92,1.92,0,0,0,.58-.52,1.24,1.24,0,0,0,.21-.71,1.06,1.06,0,0,0-.19-.62,1.54,1.54,0,0,0-.57-.44,4.42,4.42,0,0,0-.93-.31c-.43-.1-.85-.19-1.29-.26l-.89-.13a10.19,10.19,0,0,1-1.71-.43,4.51,4.51,0,0,1-1.35-.76A3.37,3.37,0,0,1,70,35.26a4.2,4.2,0,0,1,.14-3.52,4,4,0,0,1,1.22-1.38,5.62,5.62,0,0,1,1.77-.83,7.74,7.74,0,0,1,2.13-.28,13.07,13.07,0,0,1,1.42.08,9.6,9.6,0,0,1,2.63.72,12.5,12.5,0,0,1,1.31.67L79.28,33ZM89.93,36H86.42v3.5a2.39,2.39,0,0,0,.11.76,1.42,1.42,0,0,0,.31.51,1.18,1.18,0,0,0,.47.28,1.69,1.69,0,0,0,.56.09,2.44,2.44,0,0,0,.94-.2,5.53,5.53,0,0,0,.88-.43l1,2a6.68,6.68,0,0,1-1.41.72,4.93,4.93,0,0,1-1.8.29,3.55,3.55,0,0,1-2.72-1,4,4,0,0,1-.91-2.85V36H81.94V33.75h1.87V30.9h2.61v2.85h3.51V36Zm7.56-2.55a4.42,4.42,0,0,1,.76.06,2.63,2.63,0,0,1,.6.15l-.39,2.56a3.81,3.81,0,0,0-.75-.22,4.58,4.58,0,0,0-.83-.09,2.39,2.39,0,0,0-.82.14,1.93,1.93,0,0,0-.65.41,1.82,1.82,0,0,0-.42.67,2.69,2.69,0,0,0-.15.94v5.22H92.23V33.75h2.53v1a2.72,2.72,0,0,1,1.15-1,3.71,3.71,0,0,1,1.58-.31Zm12.36,9.84H107.3V42.27a3.54,3.54,0,0,1-2.9,1.31,4.4,4.4,0,0,1-1.86-.38,4.65,4.65,0,0,1-1.5-1.06,5.08,5.08,0,0,1-1-1.6,5.7,5.7,0,0,1-.36-2,5.52,5.52,0,0,1,.36-2,5.18,5.18,0,0,1,1-1.6,4.6,4.6,0,0,1,3.36-1.44,3.78,3.78,0,0,1,1.71.36,3.6,3.6,0,0,1,1.19,1V33.75h2.55ZM119.62,36h-3.51v3.5a2.13,2.13,0,0,0,.12.76,1.29,1.29,0,0,0,.31.51,1.14,1.14,0,0,0,.46.28,1.69,1.69,0,0,0,.56.09,2.49,2.49,0,0,0,1-.2,5.87,5.87,0,0,0,.87-.43l1,2a6.45,6.45,0,0,1-1.41.72,4.93,4.93,0,0,1-1.8.29,3.55,3.55,0,0,1-2.72-1,4,4,0,0,1-.91-2.85V36h-1.87V33.75h1.87V30.9h2.61v2.85h3.51V36Zm6.48-2.55a4.8,4.8,0,0,1,1.92.37,4.25,4.25,0,0,1,1.49,1,4.7,4.7,0,0,1,1,1.59,5.84,5.84,0,0,1,.35,2.05,8.46,8.46,0,0,1,0,.87h-6.88a2.66,2.66,0,0,0,.33.89,2.24,2.24,0,0,0,.56.62,2,2,0,0,0,.73.36,3.15,3.15,0,0,0,.87.11,3.61,3.61,0,0,0,1.28-.23,4,4,0,0,0,1.17-.68l1.53,1.66a5.3,5.3,0,0,1-1.86,1.1,7,7,0,0,1-2.27.35,5.51,5.51,0,0,1-2-.36,4.52,4.52,0,0,1-1.59-1,4.62,4.62,0,0,1-1-1.58,5.42,5.42,0,0,1-.37-2,5.73,5.73,0,0,1,.36-2.07,4.88,4.88,0,0,1,1-1.6,4.6,4.6,0,0,1,1.54-1A5.24,5.24,0,0,1,126.1,33.49Zm10.71,0a4,4,0,0,1,1.76.36,3.69,3.69,0,0,1,1.24,1V33.75h2.56v8.79a5.38,5.38,0,0,1-.37,2.07A4.14,4.14,0,0,1,141,46.17a4.5,4.5,0,0,1-1.65,1,6.36,6.36,0,0,1-2.16.34,9.33,9.33,0,0,1-2.29-.29,8.49,8.49,0,0,1-1-.36,5.06,5.06,0,0,1-.91-.51l.93-2.11a6.07,6.07,0,0,0,1.52.73,5.47,5.47,0,0,0,1.68.25,3.54,3.54,0,0,0,1.11-.16,2.32,2.32,0,0,0,.87-.49,2.06,2.06,0,0,0,.57-.79,2.6,2.6,0,0,0,.21-1.1V42a3.61,3.61,0,0,1-1.24,1,4.06,4.06,0,0,1-1.74.34,4,4,0,0,1-1.7-.35,4.38,4.38,0,0,1-1.42-1,4.87,4.87,0,0,1-1-1.54,5.28,5.28,0,0,1-.36-2,5.37,5.37,0,0,1,.36-2,4.67,4.67,0,0,1,1-1.54,4.41,4.41,0,0,1,1.42-1,4.31,4.31,0,0,1,1.7-.35Zm8.3,9.84h2.61V33.75h-2.61ZM146.4,29a1.65,1.65,0,0,1,.66.13,1.69,1.69,0,0,1,.53.35,1.69,1.69,0,0,1,.48,1.18,1.73,1.73,0,0,1-.12.64,1.77,1.77,0,0,1-.36.53,1.58,1.58,0,0,1-.53.35,1.65,1.65,0,0,1-.66.12,1.6,1.6,0,0,1-.65-.12,1.55,1.55,0,0,1-.53-.34,1.69,1.69,0,0,1-.35-1.83,1.49,1.49,0,0,1,.35-.53A1.67,1.67,0,0,1,146.4,29Zm8.36,4.54a4.8,4.8,0,0,1,1.92.37,4.25,4.25,0,0,1,1.49,1,4.7,4.7,0,0,1,1,1.59,5.84,5.84,0,0,1,.35,2.05,8.46,8.46,0,0,1,0,.87h-6.88a2.66,2.66,0,0,0,.33.89,2.24,2.24,0,0,0,.56.62,2,2,0,0,0,.73.36,3.15,3.15,0,0,0,.87.11,3.61,3.61,0,0,0,1.28-.23,4.22,4.22,0,0,0,1.18-.68L159,42.13a5.44,5.44,0,0,1-1.87,1.1,7,7,0,0,1-2.27.35,5.51,5.51,0,0,1-2-.36,4.52,4.52,0,0,1-1.59-1,4.62,4.62,0,0,1-1-1.58,5.42,5.42,0,0,1-.37-2,5.73,5.73,0,0,1,.36-2.07,4.88,4.88,0,0,1,1-1.6,4.6,4.6,0,0,1,1.54-1A5.24,5.24,0,0,1,154.76,33.49Zm13.73,2.93a9.09,9.09,0,0,0-1.43-.53,5.84,5.84,0,0,0-.83-.18,4.57,4.57,0,0,0-.83-.07,2.07,2.07,0,0,0-1.12.24.7.7,0,0,0-.37.63.46.46,0,0,0,.12.34,1,1,0,0,0,.34.23,2.49,2.49,0,0,0,.5.15l.62.1.86.13a4.86,4.86,0,0,1,2.42.94,2.36,2.36,0,0,1,.85,1.93,3,3,0,0,1-.3,1.34,2.69,2.69,0,0,1-.87,1,4.43,4.43,0,0,1-1.4.66,7,7,0,0,1-1.88.23c-.34,0-.69,0-1.06,0a8.45,8.45,0,0,1-1.12-.19,7.12,7.12,0,0,1-1.11-.34,4.77,4.77,0,0,1-1-.55l1-2a4.21,4.21,0,0,0,.66.38,5.42,5.42,0,0,0,1.62.49,6.45,6.45,0,0,0,1,.07,3.09,3.09,0,0,0,1.35-.23.74.74,0,0,0,.44-.67.63.63,0,0,0-.38-.55,3.91,3.91,0,0,0-1.23-.33l-.79-.11c-2.24-.3-3.35-1.27-3.35-2.9a2.91,2.91,0,0,1,.28-1.32,2.57,2.57,0,0,1,.81-1,3.91,3.91,0,0,1,1.28-.62,6.24,6.24,0,0,1,1.72-.21,9.73,9.73,0,0,1,1.1.06,9,9,0,0,1,2,.44,9.88,9.88,0,0,1,1,.41ZM36.24,3.67,26.45,9.35V19.91l18.91-11ZM24.71,10.31l-9.33,5.27V32.22l9.33-5.28ZM52.48,13,15.38,34.13v5.28L20,42.05l37.1-21.18V15.59L52.48,13ZM36.25,51.33,46,45.65V35.09l-18.91,11Zm11.53-6.64,9.33-5.28V22.78l-9.33,5.28V44.69Zm89.69-8.82a2.49,2.49,0,0,0-1,.19,2.33,2.33,0,0,0-.77.54,2.37,2.37,0,0,0-.49.8,2.71,2.71,0,0,0-.17,1,2.66,2.66,0,0,0,.17,1,2.37,2.37,0,0,0,.49.8,2.26,2.26,0,0,0,.77.53,2.34,2.34,0,0,0,1,.2,2.46,2.46,0,0,0,1-.19,2.26,2.26,0,0,0,.77-.53,2.14,2.14,0,0,0,.49-.8,2.68,2.68,0,0,0,.18-1,2.85,2.85,0,0,0-.18-1,2.27,2.27,0,0,0-.49-.8,2.3,2.3,0,0,0-.77-.53A2.39,2.39,0,0,0,137.47,35.87Zm-32.59,0a2.51,2.51,0,0,0-1,.2,2.35,2.35,0,0,0-.79.57,2.47,2.47,0,0,0-.5.84,2.79,2.79,0,0,0-.17,1,2.93,2.93,0,0,0,.17,1,2.41,2.41,0,0,0,2.33,1.61,2.61,2.61,0,0,0,1-.2,2.44,2.44,0,0,0,.79-.55,2.5,2.5,0,0,0,.51-.85,3.12,3.12,0,0,0,0-2.09,2.67,2.67,0,0,0-.51-.84,2.32,2.32,0,0,0-.79-.56,2.57,2.57,0,0,0-1-.19Zm21.2-.18a2.05,2.05,0,0,0-1.47.51,2.56,2.56,0,0,0-.71,1.41h4.3a2.53,2.53,0,0,0-.72-1.43,2,2,0,0,0-1.4-.49Zm28.66,0a2.05,2.05,0,0,0-1.47.51,2.56,2.56,0,0,0-.71,1.41h4.3a2.53,2.53,0,0,0-.72-1.43,2,2,0,0,0-1.4-.49ZM105.29,15.88a2.51,2.51,0,0,0-1,.21,2.35,2.35,0,0,0-.79.57,2.24,2.24,0,0,0-.5.84,3,3,0,0,0,0,2.06,2.42,2.42,0,0,0,1.29,1.4,2.51,2.51,0,0,0,1,.21,2.61,2.61,0,0,0,1-.2,2.32,2.32,0,0,0,.79-.56,2.37,2.37,0,0,0,.51-.84,3.12,3.12,0,0,0,0-2.09,2.67,2.67,0,0,0-.51-.84,2.42,2.42,0,0,0-.79-.56A2.76,2.76,0,0,0,105.29,15.88ZM96.65,8.94a1.63,1.63,0,0,1,1.54,1,1.57,1.57,0,0,1,.13.65,1.73,1.73,0,0,1-.12.64,1.61,1.61,0,0,1-.36.53,1.58,1.58,0,0,1-.53.35,1.65,1.65,0,0,1-.66.12,1.75,1.75,0,0,1-.65-.12,1.58,1.58,0,0,1-.53-.35,1.54,1.54,0,0,1-.35-.52A1.64,1.64,0,0,1,95,10.6a1.65,1.65,0,0,1,1.66-1.66Zm-8.6,6.94a2.76,2.76,0,0,0-1,.2,2.43,2.43,0,0,0-1.29,1.4,3.08,3.08,0,0,0-.18,1,3,3,0,0,0,.18,1.05,2.37,2.37,0,0,0,.51.84A2.29,2.29,0,0,0,87,21a2.61,2.61,0,0,0,1,.2,2.65,2.65,0,0,0,1-.21,2.35,2.35,0,0,0,.79-.57,2.43,2.43,0,0,0,.5-.83,3.24,3.24,0,0,0,0-2.07,2.35,2.35,0,0,0-1.29-1.4A2.65,2.65,0,0,0,88.05,15.88Zm29.23-.17a2.05,2.05,0,0,0-1.47.51,2.47,2.47,0,0,0-.71,1.4h4.29a2.5,2.5,0,0,0-.72-1.42,2,2,0,0,0-1.39-.49Z"/><rect class="cls-2" width="185" height="55"/></g></g></svg>