<svg xmlns="http://www.w3.org/2000/svg" viewBox="0 0 185 55"><defs><style>.cls-1{fill:#b2b2b2;fill-rule:evenodd;}.cls-2{fill:none;}</style></defs><title>04</title><g id="Layer_2" data-name="Layer 2"><g id="Layer_11" data-name="Layer 11"><path class="cls-1" d="M1.58,29.7a12.29,12.29,0,0,0,21.88,7.8,39.68,39.68,0,0,1,2.78,3.9S28,38.7,29,37.5a12.22,12.22,0,0,0,9.54,4.6A12.36,12.36,0,0,0,50.9,29.7a12.5,12.5,0,0,0-2.39-7.3A11,11,0,0,1,51,17.5H42.75a29.85,29.85,0,0,0-16.51-4.6c-6.56,0-12.73,1.8-16.9,4.6H1.48A12,12,0,0,1,4,22.4,12.57,12.57,0,0,0,1.58,29.7Zm46.93,0a9.94,9.94,0,1,1-9.94-10A10,10,0,0,1,48.51,29.7ZM26.24,15a28.56,28.56,0,0,1,11.93,2.4A12.35,12.35,0,0,0,26.24,29.8,12.36,12.36,0,0,0,13.91,17.4,30.85,30.85,0,0,1,26.24,15ZM13.91,19.8A10,10,0,1,1,4,29.8,10,10,0,0,1,13.91,19.8ZM38.57,35.7a6,6,0,1,0-6-6A6,6,0,0,0,38.57,35.7Zm-24.76,0a6,6,0,1,0-6-6A6,6,0,0,0,13.81,35.7Zm0-10.2a4.2,4.2,0,1,1-4.17,4.2A4.21,4.21,0,0,1,13.81,25.5Zm24.76,0a4.2,4.2,0,1,1-4.17,4.2A4.21,4.21,0,0,1,38.57,25.5ZM13.51,31.7a2,2,0,1,0,0-4,2,2,0,0,0-1.41.59,2,2,0,0,0,0,2.82A2,2,0,0,0,13.51,31.7Zm24.76,0a2,2,0,1,0,0-4,2,2,0,0,0,0,4Zm35-11.86-2.63.78V23h-2v2.19h2v6.75c0,3,1.24,4.55,3.72,4.55a7.85,7.85,0,0,0,2.17-.32l-.16-2h-.15a3.37,3.37,0,0,1-1.4.16c-.62,0-1.08-.15-1.24-.62a2.79,2.79,0,0,1-.46-1.89V25h3.41v-2.2H73.08v-3ZM85,22.66a4.57,4.57,0,0,0-2.32.79,3.82,3.82,0,0,0-1.39,1.72L81.13,23H78.81v.15c0,1.1.15,2.51.15,4.08v8.94H81.6v-7a4.54,4.54,0,0,1,.93-3A3.22,3.22,0,0,1,84.69,25h.93V22.35h-.15c0,.31-.31.31-.47.31Zm3.1.32h2.64V36.15H88.1Zm1.4-5.49a1.71,1.71,0,0,0-1.24.47,1.78,1.78,0,0,0-.47,1.25,1.82,1.82,0,0,0,.47,1.26,1.87,1.87,0,0,0,2.48,0,1.81,1.81,0,0,0,.46-1.26A1.77,1.77,0,0,0,90.74,18a1.73,1.73,0,0,0-1.24-.47ZM100,22.66a5.48,5.48,0,0,0-4.49,2.2l-.16-2H92.9V23c0,1.1.16,2.51.16,4.23V41.49h2.63V34.74A3.76,3.76,0,0,0,97.09,36a6.49,6.49,0,0,0,2.32.63,5,5,0,0,0,4.18-2,8,8,0,0,0,1.71-5.18,7.33,7.33,0,0,0-1.55-4.86A4.22,4.22,0,0,0,100,22.66ZM117.38,33V28.31a6.42,6.42,0,0,0-1.24-4.08,5.12,5.12,0,0,0-3.87-1.41,8.36,8.36,0,0,0-4.5,1.26l.62,1.88h.16A6.17,6.17,0,0,1,112,25a2.69,2.69,0,0,1,2.94,2.82V28A11.86,11.86,0,0,0,109,29.25,4,4,0,0,0,107,33a3.24,3.24,0,0,0,1.08,2.66,3.83,3.83,0,0,0,3,1.1,4.77,4.77,0,0,0,4-1.88l.31,1.57h2.48v-.16A7.45,7.45,0,0,1,117.38,33ZM131,32.7V16.86h-2.63v7.53a3.38,3.38,0,0,0-1.4-1.1,6.49,6.49,0,0,0-2.32-.63,5,5,0,0,0-4.18,2,8,8,0,0,0-1.71,5.18,7.33,7.33,0,0,0,1.55,4.86,5.09,5.09,0,0,0,6.66,1.1,4.85,4.85,0,0,0,1.55-1.57l.15,1.88h2.48V36c0-.63-.15-1.89-.15-3.3Zm7.59-2c-.31-.94-3.72-7.68-3.72-7.68h-2.94l6.5,13.17L145,23H142c.15,0-3.1,7.06-3.41,7.68ZM146.34,23H149V36.15h-2.64Zm1.4-5.49a1.71,1.71,0,0,0-1.24.47,1.78,1.78,0,0,0-.47,1.25,1.82,1.82,0,0,0,.47,1.26,1.87,1.87,0,0,0,2.48,0,1.81,1.81,0,0,0,.46-1.26A1.77,1.77,0,0,0,149,18a1.73,1.73,0,0,0-1.24-.47Zm9.29,11a6.29,6.29,0,0,1-2-.94,1.45,1.45,0,0,1-.47-1.1,1.82,1.82,0,0,1,.47-1.26,2.31,2.31,0,0,1,1.55-.47,6.24,6.24,0,0,1,2.78.79h.16l.62-2a7.31,7.31,0,0,0-3.41-.79,4.76,4.76,0,0,0-3.41,1.1,3.44,3.44,0,0,0-1.24,2.83c0,1.72,1.24,3,3.57,3.76a5,5,0,0,1,1.86.94,1.81,1.81,0,0,1,.46,1.26,1.41,1.41,0,0,1-.62,1.25,3,3,0,0,1-1.7.47,6.44,6.44,0,0,1-3.26-.94h-.15l-.62,2.2h.15a8,8,0,0,0,3.88.94,5.55,5.55,0,0,0,3.71-1.1,3.65,3.65,0,0,0,1.4-3A3.83,3.83,0,0,0,160,30,16.62,16.62,0,0,0,157,28.47Zm11.31-5.81a6.26,6.26,0,0,0-4.65,1.89,7,7,0,0,0-1.86,5.17,7.12,7.12,0,0,0,1.71,4.87A5.93,5.93,0,0,0,168,36.47a6.11,6.11,0,0,0,3.25-.94A6,6,0,0,0,173.6,33a7.49,7.49,0,0,0,.78-3.77,7.12,7.12,0,0,0-1.7-4.86A5.56,5.56,0,0,0,168.34,22.66Zm14.56,0a4.61,4.61,0,0,0-2.33.79,3.82,3.82,0,0,0-1.39,1.72L179,23h-2.17V36.15h2.63v-7a4.54,4.54,0,0,1,.93-3,3.22,3.22,0,0,1,2.17-1.1h.93V22.35h-.16c0,.31-.31.31-.46.31Zm-68.16,9.1a2.26,2.26,0,0,1-.93,1.89,3,3,0,0,1-2.32.78,2,2,0,0,1-1.55-.63,2.4,2.4,0,0,1-.62-1.57,2.29,2.29,0,0,1,1.09-2,8.53,8.53,0,0,1,4.18-.78v2.35Zm13.63-1.25a3.72,3.72,0,0,1-.92,2.66,3.14,3.14,0,0,1-2.33.94,3.27,3.27,0,0,1-2.63-1.25,5.85,5.85,0,0,1-.93-3.29,6,6,0,0,1,.93-3.45,2.88,2.88,0,0,1,2.63-1.26,3.14,3.14,0,0,1,2.33.94,3.59,3.59,0,0,1,.93,2.51v2.2ZM101.73,33a3.3,3.3,0,0,1-2.63,1.25,3.11,3.11,0,0,1-2.32-.94,3.59,3.59,0,0,1-.93-2.51v-2a8.77,8.77,0,0,1,.31-1.57,3,3,0,0,1,1.24-1.57A3,3,0,0,1,99.25,25a3.55,3.55,0,0,1,2.64,1.25,5.2,5.2,0,0,1,.93,3.3A4.84,4.84,0,0,1,101.73,33Zm69.09.15a3.25,3.25,0,0,1-2.64,1.42,3.21,3.21,0,0,1-2.63-1.42,5.11,5.11,0,0,1-1.08-3.45,5.13,5.13,0,0,1,1.08-3.45,3.12,3.12,0,0,1,2.79-1.41A3,3,0,0,1,171,26.27a6,6,0,0,1,.93,3.45A5.4,5.4,0,0,1,170.82,33.17Z"/><rect class="cls-2" width="185" height="55"/></g></g></svg>