<svg xmlns="http://www.w3.org/2000/svg" viewBox="0 0 185 55"><defs><style>.cls-1{fill:#b2b2b2;fill-rule:evenodd;}.cls-2{fill:none;}</style></defs><title>05</title><g id="Layer_2" data-name="Layer 2"><g id="Layer_10" data-name="Layer 10"><path class="cls-1" d="M162,17.74h-2.9V28.61c0,3-1.73,4.09-4,4.14s-3.45-1.5-3.45-4.47V17.75h-2.87V28.28c0,5.85,2.83,7.51,6.33,7.51a5.12,5.12,0,0,0,4-1.65v2.65c-.05,2-.7,4-1.89,4.62a3.86,3.86,0,0,1-2.29.43V45a7.27,7.27,0,0,0,4.05-.81c1.82-1,3-4.23,3-7.58ZM50.17,17.67a5.37,5.37,0,0,0-4.06,1.64V10.46h-3l0,25.25h3V25.55c0-3,1.76-4.79,4.06-4.84s3.53,2.2,3.53,5.19v9.79h2.92V25.9c0-5.86-2.89-8.24-6.46-8.23Zm51.34,8c.43-3.34,2.23-5.35,4.93-5.35,3.38,0,4.71,2.57,5,5.35Zm5-8.12c-4.71,0-7.92,4.09-7.91,9.49s3.36,8.77,8.24,8.76c2.89,0,4.73-1.05,6.71-3.4l.13-.14-1.81-1.71-.12.13a5.82,5.82,0,0,1-4.85,2.3c-3,0-5-1.36-5.41-4.71h12.64l0-.16c0-.41,0-.7,0-.93C114.19,21.47,111.29,17.59,106.52,17.6Zm13.92,2.17v-2h-3V35.63h3V25.41a4.64,4.64,0,0,1,4.71-4.66,6.77,6.77,0,0,1,.93.11V17.68a4.9,4.9,0,0,0-.94-.06A5.34,5.34,0,0,0,120.44,19.77Zm-88.28,2c-3.43-.87-5.63-1.49-5.63-4.5,0-2.51,2-4,5.14-4a6.91,6.91,0,0,1,5.51,2.59l2.17-2c-.89-1.68-3.78-3.64-7.73-3.64-4.57,0-8,3.1-8,7.19,0,5.12,3.65,6.38,7.34,7.33s6.1,1.87,6.1,4.8c0,2.71-2,3.45-5.37,3.45a7.44,7.44,0,0,1-6.48-3.61L23,31.37c.76,2.13,4.39,4.6,8.73,4.6,5,0,8.28-2.18,8.27-6.64C40,24.33,36.2,22.74,32.16,21.74ZM142,10.35l0,25.24H145l0-25.23Zm-71.91,7.5V28.62c0,3-1.37,4.1-3.66,4.15s-3.68-1.15-3.68-4.13V17.85H59.84V28.77c0,4.89,2.48,7.13,6.62,7.13s6.6-2.25,6.59-7.13V17.84ZM94.56,32.3c-1.23-.61-1.89-1.41-2-3.4v-8h4.31V17.81h-4.3V10.41H89.62v7.41H87.51v3.11h2.12v8c0,3.35,1.26,5.12,3.13,6.16a7.59,7.59,0,0,0,4.13.8V32.74a4.1,4.1,0,0,1-2.33-.44Zm-11.64,0c-1.22-.62-1.89-1.41-2-3.4v-8h4.3V17.82H80.94V10.42H78v7.41H75.88V21H78v8c0,3.35,1.26,5.12,3.12,6.16a7.49,7.49,0,0,0,4.13.8V32.75A4.14,4.14,0,0,1,82.92,32.31Zm55.21-14.56h-4.3v-.16c.07-2,.73-3.37,2-4a4.09,4.09,0,0,1,2.34-.43V10a7.82,7.82,0,0,0-4.13.86c-1.85,1-3.11,3.57-3.11,6.92v0h-2.12v3.1h2.12l0,14.74h2.94l0-14.74h4.31v-3.1Z"/><rect class="cls-2" width="185" height="55"/></g></g></svg>