<svg xmlns="http://www.w3.org/2000/svg" viewBox="0 0 185 55"><defs><style>.cls-1{fill:#b2b2b2;fill-rule:evenodd;}.cls-2{fill:none;}</style></defs><title>06</title><g id="Layer_2" data-name="Layer 2"><g id="Layer_9" data-name="Layer 9"><path class="cls-1" d="M40.71,16.5H18.06a1.92,1.92,0,0,0,1.87,2.42H40.6a4.47,4.47,0,0,1,4.28,5.5c-.55,2.09-2.08,8.36-2.08,8.36a4.27,4.27,0,0,1-4.29,3.3H21.69a1.21,1.21,0,0,1-1.21-1.54c.55-2.09,2.09-8.25,2.09-8.25a2,2,0,0,0-1.87-2.42s-1.87,7.48-2.53,10a3.61,3.61,0,0,0,3.52,4.62H38.62a6.92,6.92,0,0,0,6.59-5.17S46.75,27.06,47.3,25A6.75,6.75,0,0,0,40.71,16.5ZM71.37,36.08c-.44,2.09-1,2.42-2.08,2.42H48.73a1.45,1.45,0,0,1-.81-.21,1.52,1.52,0,0,1-.57-.61,1.49,1.49,0,0,1-.15-.83,1.47,1.47,0,0,1,.32-.77ZM105.56,16.5c-.44,2.09-1,2.42-2.09,2.42h-17a4.45,4.45,0,0,0-4.28,3.3c-.55,2.09-1.54,6.27-2.09,8.36a4.38,4.38,0,0,0,4.28,5.5h16.27a1.83,1.83,0,0,1,.86.19,1.92,1.92,0,0,1,.68.55,1.94,1.94,0,0,1,.33,1.68H84.34A6.71,6.71,0,0,1,77.75,30c.44-2.09,1.54-6.16,2.09-8.36a6.62,6.62,0,0,1,6.59-5.17Zm23.08,0H115.78a6.92,6.92,0,0,0-6.59,5.17c-.55,2.09-1.54,6.16-2.09,8.36a6.82,6.82,0,0,0,6.59,8.47h12.86a6.93,6.93,0,0,0,6.6-5.17c.55-2.09,1.54-6.16,2.09-8.36a6.72,6.72,0,0,0-6.6-8.47Zm4.29,7.92c-.55,2.09-1.54,6.16-2.09,8.36a4.27,4.27,0,0,1-4.29,3.3H113.69a4.44,4.44,0,0,1-4.29-5.5c.55-2.09,1.54-6.27,2.09-8.36a4.4,4.4,0,0,1,4.18-3.3h13A4.39,4.39,0,0,1,132.93,24.42ZM73.79,26.29l-.66,2.42H53l1.87-2.42ZM60.38,18.92c1.1-1.43,1.65-2.42,3.3-2.42H73.79a1.83,1.83,0,0,1,.86.19,1.92,1.92,0,0,1,.68.55,1.89,1.89,0,0,1,.37.8,2,2,0,0,1,0,.88Zm84.09,0a1.33,1.33,0,0,0-1.21.88s-.88,3.63-1.21,4.84a1.21,1.21,0,0,0,1.21,1.54H160a3.56,3.56,0,0,1,3.52,4.51c-.33,1.21-.88,3.63-1.21,4.84a3.59,3.59,0,0,1-3.51,2.75H136c.44-2.09,1-2.42,2.09-2.42h20.67A1.46,1.46,0,0,0,160,35s.88-3.63,1.2-4.84A1.25,1.25,0,0,0,160,28.6h-16.7a3.61,3.61,0,0,1-3.63-4.51c.33-1.21.88-3.63,1.21-4.84a3.61,3.61,0,0,1,3.52-2.75H167c-.44,2.09-1,2.42-2.09,2.42Z"/><rect class="cls-2" width="185" height="55"/></g></g></svg>