<svg xmlns="http://www.w3.org/2000/svg" viewBox="0 0 185 55"><defs><style>.cls-1{fill:#b2b2b2;fill-rule:evenodd;}.cls-2{fill:none;}</style></defs><title>07</title><g id="Layer_2" data-name="Layer 2"><g id="Layer_8" data-name="Layer 8"><path class="cls-1" d="M69.54,14a3,3,0,0,0,2.1-5.12,3,3,0,0,0-1-.65A2.93,2.93,0,0,0,69.54,8a3,3,0,1,0,0,6ZM71,27.61V18H66.5v9.61a9.2,9.2,0,0,0,9,9.39V32.32A4.62,4.62,0,0,1,71,27.61Zm20.89-8.19A9,9,0,0,0,87.17,18h0a9.82,9.82,0,0,0-6.8,2.77,9,9,0,0,0-2.09,3,9.15,9.15,0,0,0-.74,3.61v.37a9.59,9.59,0,0,0,14.39,8.05V47H96.5V18.27H91.89Zm47.26,6.67-2.94-.93c-1-.35-1.83-.9-1.79-1.63.09-1.38,1.23-1.73,2.37-1.66a2.42,2.42,0,0,1,2.2,1.37l3.94-1.94c-1.11-2.14-3.55-3.13-6-3.28-3.56-.23-6.74,2.06-6.92,5-.13,2.14.15,4.31,4.71,5.89l2.42.78c1.27.4,1.94.91,1.84,1.84s-1.15,1.73-2.45,1.69a3.21,3.21,0,0,1-3.09-2.07l-3.93,1.93A7.38,7.38,0,0,0,135.83,37c3.7.24,7.43-1.44,7.66-5.13.09-1.45-.27-4.4-4.34-5.76ZM52.45,9H50.72a9.15,9.15,0,0,0-6.52,2.85,9.34,9.34,0,0,0-2.7,6.71h4.61a4.48,4.48,0,0,1,1.36-3.29,4.73,4.73,0,0,1,1.49-1,4.45,4.45,0,0,1,1.76-.34h1.66V27.63A9.25,9.25,0,0,0,61.71,37V32.33a4.72,4.72,0,0,1-4.85-4.7V13.92H63.5V9Zm54,9a9.07,9.07,0,0,0-9,9.43A9.16,9.16,0,0,0,106.93,37a8.41,8.41,0,0,0,7.62-4.07l-3.9-1.85A4.1,4.1,0,0,1,107,32.85a4.52,4.52,0,0,1-4.6-4.08h13.07s.07-.79.07-1.48C115.5,21.54,112.12,18,106.48,18Zm13.45,9.59A8.47,8.47,0,0,0,128.46,36V31.52a4,4,0,0,1-4-3.93h0V21.77h4V17.91h-4V12h-4.53v5.91H116.5v3.86h3.43v5.82Zm-28,.2a4.59,4.59,0,0,1-1.47,3.29,4.51,4.51,0,0,1-3.29,1.38,4.65,4.65,0,0,1-4.72-4.67v-.37a4.48,4.48,0,0,1,1.35-3.29,4.79,4.79,0,0,1,3.35-1.39A4.68,4.68,0,0,1,92,27.37l0,.42Zm10.51-2.31A3.83,3.83,0,0,1,106.56,22c2.82,0,4,1.76,4.08,3.53Z"/><rect class="cls-2" width="185" height="55"/></g></g></svg>