<svg xmlns="http://www.w3.org/2000/svg" viewBox="0 0 185 55"><defs><style>.cls-1{fill:#b2b2b2;fill-rule:evenodd;}.cls-2{fill:none;}</style></defs><title>08</title><g id="Layer_2" data-name="Layer 2"><g id="Layer_7" data-name="Layer 7"><path class="cls-1" d="M22.93,22.46c-3.81,0-7.11,1.36-9,3.65V11.55H5.55v31.9H13.9V38.3c0-5.19,2.28-8.16,6.26-8.16,2.72,0,4.28,1,4.92,3.24a22.64,22.64,0,0,1,.49,5.84v4.23h8.35V37.32c0-5.73-.54-8.44-2.16-10.77C29.76,23.8,26.87,22.46,22.93,22.46Zm9.75,2.36a10.66,10.66,0,0,1,1.2,2.2V11.56H25.53v8.91A10.62,10.62,0,0,1,32.68,24.82ZM54.39,37h-3V19.85h3v6.94h7.67V19.85h3V37H62l.05-7.53H54.39Zm19-12.3c3.66,0,6,2.48,6,6.34s-2.32,6.26-6,6.26-6-2.42-6-6.26S69.75,24.72,73.4,24.72ZM88,37.12a9.72,9.72,0,0,1-2.14.2,3.85,3.85,0,0,1-3-1,3.54,3.54,0,0,1-.5-2.43V27.25H79.76V25h2.57V20.81l2.87-.63V25H88v2.25H85.2v6.13c0,.69.1,1,.33,1.24a1.72,1.72,0,0,0,1.21.33,8,8,0,0,0,1.26-.1Zm12.51-2.83a6.42,6.42,0,0,1-5.65,3c-3.56,0-6-2.52-6-6.41a5.82,5.82,0,0,1,5.9-6.19c3.84,0,5.68,2.65,5.68,6.34,0,.2,0,.53,0,.73H91.68A3.18,3.18,0,0,0,95,34.85a3.94,3.94,0,0,0,3.5-2.07ZM102.68,37h2.87V19.85h-2.87V37Zm13.79-7.65a2.84,2.84,0,0,0-2.8-2.17c-1.92,0-3.13,1.41-3.13,3.81s1.24,3.81,3.13,3.81a2.9,2.9,0,0,0,2.87-2L118.86,34a5.63,5.63,0,0,1-5.27,3.3c-3.48,0-5.9-2.22-5.9-6.26s2.6-6.34,5.9-6.34a5.3,5.3,0,0,1,5.27,3.39ZM131.22,37h-2.88V30.94a8.58,8.58,0,0,0-.2-2.3A1.92,1.92,0,0,0,126,27.25c-1.79,0-2.65,1.39-2.65,3.33V37H120.5V19.85h2.87v6.69a4.07,4.07,0,0,1,3.73-1.84,3.82,3.82,0,0,1,3.31,1.49c.55.78.8,1.69.8,4V37Zm12.3-2.75c0,.76.1,1,.78,1h.15v1.89a5.7,5.7,0,0,1-1.36.13c-1.11,0-1.89-.31-2.12-1.24h0c-.48.56-1.44,1.29-3.58,1.29-2.32,0-4.24-1.16-4.24-3.79a3.22,3.22,0,0,1,.68-2.12,5.83,5.83,0,0,1,3.56-1.64l2.65-.46c.63-.12.75-.17.75-.63v-.2c0-1-.65-1.51-2.14-1.51s-2.45.68-2.42,2.09l-2.7-.18c0-2.95,2.37-4.14,5.24-4.14s4.77.89,4.77,3.54v6Zm13-7.7a5,5,0,0,1,4.11-1.87,4,4,0,0,1,3.18,1.16c.76.86,1.06,1.69,1.06,4.34V37H162V30.93c0-2.17-.16-3.68-2.32-3.68-1.79,0-2.6,1.39-2.6,3.33V37h-2.87V30.93c0-2.17-.16-3.68-2.32-3.68-1.77,0-2.6,1.39-2.6,3.33V37h-2.88V25h2.88v1.54a4.15,4.15,0,0,1,3.76-1.84,3.83,3.83,0,0,1,3,1.16,4.25,4.25,0,0,1,.5.7Zm14,9.19v6.06h-2.88V25h2.88v1.31a4.51,4.51,0,0,1,3.53-1.61c3.25,0,5.32,2.62,5.32,6.36s-2.12,6.26-5.32,6.26a4.36,4.36,0,0,1-3.53-1.56Zm-97.2-.91c1.84,0,3.15-1.47,3.15-3.84s-1.26-3.84-3.15-3.84S70.25,28.61,70.25,31,71.56,34.85,73.4,34.85Zm18.36-5.2h5.85A2.68,2.68,0,0,0,94.78,27,2.92,2.92,0,0,0,91.76,29.65Zm49,3.1V31.29a11.57,11.57,0,0,1-1.64.43l-1.11.22c-1.36.28-2,.64-2,1.59s.65,1.65,2.06,1.65C139.69,35.18,140.77,34.39,140.77,32.75Zm32.75,2.07c1.84,0,3-1.44,3-3.81s-1.21-3.84-3-3.84-3.05,1.52-3.05,3.84S171.71,34.82,173.52,34.82Z"/><rect class="cls-2" width="185" height="55"/></g></g></svg>