<svg xmlns="http://www.w3.org/2000/svg" viewBox="0 0 185 55"><defs><style>.cls-1{fill:#b2b2b2;fill-rule:evenodd;}.cls-2{fill:none;}</style></defs><title>09</title><g id="Layer_2" data-name="Layer 2"><g id="Layer_6" data-name="Layer 6"><path class="cls-1" d="M58.3,35.8V20.07H68.4v2.79H61.86V27H67V29.7H61.86v6.1Zm12.27,0V19.08h3.17V35.8Zm6.16,0V24.29H79.9V35.8ZM78.3,22.73a1.78,1.78,0,0,1-1.29-.5,1.74,1.74,0,0,1,0-2.48,1.78,1.78,0,0,1,1.29-.5,1.81,1.81,0,0,1,1.29.5,1.72,1.72,0,0,1,0,2.48A1.81,1.81,0,0,1,78.3,22.73ZM87,36a3.79,3.79,0,0,1-2.77-.93,3.61,3.61,0,0,1-1-2.7V26.56H81.84V24.29h1.47V21.8h3.17v2.49H88.9v2.27H86.48V32.1c0,.91.42,1.36,1.28,1.36A3.11,3.11,0,0,0,89,33.24v2.47A6.11,6.11,0,0,1,87,36Zm8.51,0a5.89,5.89,0,0,1-3.63-1,3.6,3.6,0,0,1-1.38-2.86h3a1.87,1.87,0,0,0,.57,1.22,2.16,2.16,0,0,0,1.45.41q1.8,0,1.8-1.26a1,1,0,0,0-.52-.88A5.61,5.61,0,0,0,95,31.2a7,7,0,0,1-3.29-1.15,3,3,0,0,1-1-2.44A3,3,0,0,1,92.08,25,5.46,5.46,0,0,1,95.3,24c2.9,0,4.49,1.18,4.75,3.56H97.13a1.62,1.62,0,0,0-1.81-1.39,1.94,1.94,0,0,0-1.2.33,1.06,1.06,0,0,0-.43.86.88.88,0,0,0,.48.82,5.79,5.79,0,0,0,1.75.44,7.81,7.81,0,0,1,3.4,1.1,2.87,2.87,0,0,1,1.06,2.5,3.34,3.34,0,0,1-1.26,2.82A5.77,5.77,0,0,1,95.54,36Zm6.87-.24V24.29h3.19v1.76A3.68,3.68,0,0,1,107,24.6a4,4,0,0,1,2.14-.57,3.13,3.13,0,0,1,3.21,2,4.35,4.35,0,0,1,3.87-2,3.59,3.59,0,0,1,2.74,1.1,4.6,4.6,0,0,1,1,3.3V35.8h-3.16v-7c0-1.42-.61-2.14-1.81-2.14a2.19,2.19,0,0,0-1.59.62,2.32,2.32,0,0,0-.63,1.74v6.8h-3.17v-7c0-1.42-.6-2.14-1.8-2.14a2.19,2.19,0,0,0-1.6.62A2.36,2.36,0,0,0,105.6,29v6.8ZM128,36a6.09,6.09,0,0,1-4.33-1.57A5.62,5.62,0,0,1,122,30.19V30a5.7,5.7,0,0,1,5.92-6,5.31,5.31,0,0,1,5.61,5.85v.88h-8.3a3.38,3.38,0,0,0,.82,2.22,2.65,2.65,0,0,0,2,.79c1.38,0,2.18-.53,2.4-1.6h3A4.11,4.11,0,0,1,131.8,35,6.56,6.56,0,0,1,128,36Zm-2.72-7.24h5.14c-.1-1.72-.94-2.57-2.5-2.57a2.42,2.42,0,0,0-1.77.67,3.08,3.08,0,0,0-.87,1.9Zm10.42,7V24.29h3.17V35.8Zm1.57-13.07a1.78,1.78,0,0,1-1.29-.5,1.74,1.74,0,0,1,0-2.48,1.78,1.78,0,0,1,1.29-.5,1.81,1.81,0,0,1,1.29.5,1.72,1.72,0,0,1,0,2.48A1.81,1.81,0,0,1,137.28,22.73ZM146,36a5.85,5.85,0,0,1-3.63-1A3.61,3.61,0,0,1,141,32.19h3a2,2,0,0,0,.57,1.22,2.19,2.19,0,0,0,1.46.41q1.8,0,1.8-1.26a1,1,0,0,0-.53-.88,5.46,5.46,0,0,0-1.8-.48,6.93,6.93,0,0,1-3.29-1.15,3,3,0,0,1-1-2.44A3.06,3.06,0,0,1,142.52,25a5.49,5.49,0,0,1,3.23-.93c2.9,0,4.48,1.18,4.75,3.56h-2.93a1.61,1.61,0,0,0-1.8-1.39,1.92,1.92,0,0,0-1.2.33,1,1,0,0,0-.43.86.89.89,0,0,0,.47.82,5.88,5.88,0,0,0,1.75.44,7.71,7.71,0,0,1,3.4,1.1,2.88,2.88,0,0,1,1.07,2.5,3.32,3.32,0,0,1-1.27,2.82A5.72,5.72,0,0,1,146,36Zm11.06,0a3.8,3.8,0,0,1-2.77-.93,3.6,3.6,0,0,1-.94-2.7V26.56h-1.48V24.29h1.48V21.8h3.16v2.49h2.42v2.27H156.5V32.1c0,.91.43,1.36,1.28,1.36a3,3,0,0,0,1.21-.22v2.47A6.06,6.06,0,0,1,157.05,36Zm9.4,0a6.12,6.12,0,0,1-4.34-1.57,5.62,5.62,0,0,1-1.67-4.28V30a6,6,0,0,1,9.94-4.51A5.68,5.68,0,0,1,172,29.88v.88h-8.29a3.32,3.32,0,0,0,.81,2.22,2.67,2.67,0,0,0,2,.79c1.37,0,2.17-.53,2.39-1.6h3A4.09,4.09,0,0,1,170.23,35,6.5,6.5,0,0,1,166.45,36Zm-2.73-7.24h5.15c-.1-1.72-.94-2.57-2.51-2.57a2.42,2.42,0,0,0-1.77.67,3.19,3.19,0,0,0-.87,1.9Zm10.34,7V24.29h3.19v2.2A3.85,3.85,0,0,1,181,24.11v3a4.59,4.59,0,0,0-2.78.67,2.66,2.66,0,0,0-.94,2.28V35.8ZM31.1,8H15.63c-4.19,0-6.47,0-9,2.6S4,15.47,4,19.7V35.3c0,4.22,0,6.5,2.58,9.1s4.83,2.6,9,2.6H31.1c4.18,0,6.76,0,9-2.6s2.57-4.88,2.57-9.1V19.7c0-4.23,0-6.5-2.57-9.1S35.29,8,31.1,8ZM17.89,27.3H14.44V24.91h4.77a31,31,0,0,1,2.29-3.19H11.19V33.28h3.25V30.49h2.24a21.15,21.15,0,0,1,1.21-3.19Zm12.27-5.58-2.09,6.17-2-6.17H22.75c-1.76,2.86-2.23,7.85-2.23,11.56h3.25v-7.7l2.72,7.7h3.15l2.67-7.7v7.7h3.22V21.72Z"/><rect class="cls-2" width="185" height="55"/></g></g></svg>